<?xml version="1.0" standalone="no"?>
<svg xmlns:xlink="http://www.w3.org/1999/xlink" id="wave" style="transform:rotate(0deg); transition: 0.3s" viewBox="0 0 1440 490" version="1.1" xmlns="http://www.w3.org/2000/svg"><defs><linearGradient id="sw-gradient-0" x1="0" x2="0" y1="1" y2="0"><stop stop-color="rgba(243, 106, 62, 1)" offset="0%"/><stop stop-color="rgba(255, 179, 11, 1)" offset="100%"/></linearGradient></defs><path style="transform:translate(0, 0px); opacity:1" fill="url(#sw-gradient-0)" d="M0,0L48,65.3C96,131,192,261,288,285.8C384,310,480,229,576,212.3C672,196,768,245,864,269.5C960,294,1056,294,1152,294C1248,294,1344,294,1440,294C1536,294,1632,294,1728,269.5C1824,245,1920,196,2016,155.2C2112,114,2208,82,2304,114.3C2400,147,2496,245,2592,261.3C2688,278,2784,212,2880,228.7C2976,245,3072,343,3168,367.5C3264,392,3360,343,3456,302.2C3552,261,3648,229,3744,236.8C3840,245,3936,294,4032,302.2C4128,310,4224,278,4320,220.5C4416,163,4512,82,4608,89.8C4704,98,4800,196,4896,212.3C4992,229,5088,163,5184,187.8C5280,212,5376,327,5472,318.5C5568,310,5664,180,5760,171.5C5856,163,5952,278,6048,302.2C6144,327,6240,261,6336,220.5C6432,180,6528,163,6624,179.7C6720,196,6816,245,6864,269.5L6912,294L6912,490L6864,490C6816,490,6720,490,6624,490C6528,490,6432,490,6336,490C6240,490,6144,490,6048,490C5952,490,5856,490,5760,490C5664,490,5568,490,5472,490C5376,490,5280,490,5184,490C5088,490,4992,490,4896,490C4800,490,4704,490,4608,490C4512,490,4416,490,4320,490C4224,490,4128,490,4032,490C3936,490,3840,490,3744,490C3648,490,3552,490,3456,490C3360,490,3264,490,3168,490C3072,490,2976,490,2880,490C2784,490,2688,490,2592,490C2496,490,2400,490,2304,490C2208,490,2112,490,2016,490C1920,490,1824,490,1728,490C1632,490,1536,490,1440,490C1344,490,1248,490,1152,490C1056,490,960,490,864,490C768,490,672,490,576,490C480,490,384,490,288,490C192,490,96,490,48,490L0,490Z"/><defs><linearGradient id="sw-gradient-1" x1="0" x2="0" y1="1" y2="0"><stop stop-color="rgba(243, 106, 62, 1)" offset="0%"/><stop stop-color="rgba(255, 179, 11, 1)" offset="100%"/></linearGradient></defs><path style="transform:translate(0, 50px); opacity:0.9" fill="url(#sw-gradient-1)" d="M0,294L48,277.7C96,261,192,229,288,220.5C384,212,480,229,576,220.5C672,212,768,180,864,155.2C960,131,1056,114,1152,138.8C1248,163,1344,229,1440,220.5C1536,212,1632,131,1728,130.7C1824,131,1920,212,2016,245C2112,278,2208,261,2304,212.3C2400,163,2496,82,2592,73.5C2688,65,2784,131,2880,204.2C2976,278,3072,359,3168,359.3C3264,359,3360,278,3456,261.3C3552,245,3648,294,3744,277.7C3840,261,3936,180,4032,138.8C4128,98,4224,98,4320,155.2C4416,212,4512,327,4608,343C4704,359,4800,278,4896,220.5C4992,163,5088,131,5184,155.2C5280,180,5376,261,5472,253.2C5568,245,5664,147,5760,106.2C5856,65,5952,82,6048,73.5C6144,65,6240,33,6336,16.3C6432,0,6528,0,6624,57.2C6720,114,6816,229,6864,285.8L6912,343L6912,490L6864,490C6816,490,6720,490,6624,490C6528,490,6432,490,6336,490C6240,490,6144,490,6048,490C5952,490,5856,490,5760,490C5664,490,5568,490,5472,490C5376,490,5280,490,5184,490C5088,490,4992,490,4896,490C4800,490,4704,490,4608,490C4512,490,4416,490,4320,490C4224,490,4128,490,4032,490C3936,490,3840,490,3744,490C3648,490,3552,490,3456,490C3360,490,3264,490,3168,490C3072,490,2976,490,2880,490C2784,490,2688,490,2592,490C2496,490,2400,490,2304,490C2208,490,2112,490,2016,490C1920,490,1824,490,1728,490C1632,490,1536,490,1440,490C1344,490,1248,490,1152,490C1056,490,960,490,864,490C768,490,672,490,576,490C480,490,384,490,288,490C192,490,96,490,48,490L0,490Z"/></svg>